# xmcd
#
# Track frame offsets: 
#        150
#        12263
#        32026
#        59926
#        82002
#        95207
#        120257
#        137501
#        153792
#        168488
#        189546
#        204722
#        217289
#
# Disc length: 3639 seconds
#
# Revision: 0
# Processed by: cddbd v1.5.2PL0 Copyright (c) Steve Scherf et al.
# Submitted via: ExactAudioCopy v0.95b4
#
DISCID=bd0e350d
DTITLE=Reverend Robert B. Jones, Sr. - At The Crossroads
DYEAR=2007
DGENRE=Christian
TTITLE0=No More
TTITLE1=Crossroads
TTITLE2=Arnesia's Song
TTITLE3=The Darkness Of Blackness
TTITLE4=When I Was On A Chain Gang
TTITLE5=Crucifixion
TTITLE6=I Wrestled With The Angel
TTITLE7=His Blood Can Make You Whole
TTITLE8=Serious Road
TTITLE9=Death Letter Blues
TTITLE10=Nobody's Fault But Mine
TTITLE11=Jesus Gonna Make Up My Dying Bed
TTITLE12=I Can't Play Like B.B. King [Bonus Track]
EXTD=
EXTT0=
EXTT1=
EXTT2=
EXTT3=
EXTT4=
EXTT5=
EXTT6=
EXTT7=
EXTT8=
EXTT9=
EXTT10=
EXTT11=
EXTT12=
PLAYORDER=
